<svg id="Layer_1" enable-background="new 0 0 512 512" viewBox="0 0 512 512" xmlns="http://www.w3.org/2000/svg"><g id="Layer_2_00000127734386600706393420000008725532311313158846_"><g id="Layer_2_copy_15"><g id="_148"><path d="m332.5 374.7v16.3c0 15.4-12.6 28-28 28h-216.5c-15.4 0-28-12.6-28-28v-333c0-15.4 12.6-28 28-28h216.5c15.4 0 28 12.6 28 28v16.8c4.6-.4 9.3-.7 14-.7 5.3 0 10.7.3 16 .8v-16.9c0-32-26-58-58-58h-216.5c-32 0-58 26-58 58v396c0 32 26 58 58 58h216.5c32 0 58-26 58-58v-79.5c-5.3.6-10.7.9-16 .9-4.8 0-9.4-.3-14-.7zm-113.1 107.3h-46.4c-9.2-.2-16.4-7.8-16.2-17 .2-8.8 7.3-16 16.2-16.2h46.5c9.2-.2 16.8 7 17 16.2s-7 16.8-16.2 17c-.3 0-.6 0-.9 0z"/><path d="m346.5 89.2c-74.9 0-135.6 60.7-135.6 135.6s60.7 135.6 135.6 135.6 135.5-60.8 135.5-135.6c0-74.9-60.7-135.6-135.5-135.6zm77 116.6-80.2 80.2c-9.6 9.6-25.1 9.6-34.6 0l-44.2-44.2c-9.4-9.7-9.2-25.2.5-34.6 9.5-9.3 24.7-9.3 34.2 0l26.8 26.8 62.8-62.9c9.6-9.6 25.1-9.6 34.7 0 9.5 9.6 9.5 25.1 0 34.7z"/></g></g></g></svg>