<svg id="Capa_1" enable-background="new 0 0 512 512" height="512" viewBox="0 0 512 512" width="512" xmlns="http://www.w3.org/2000/svg"><g><path d="m452 176h-17.117c-9.982-89.874-86.391-160-178.883-160s-168.901 70.126-178.883 160h-17.117c-33.084 0-60 26.916-60 60v80c0 33.084 26.916 60 60 60h36c11.046 0 20-8.954 20-20v-160c0-77.196 62.804-140 140-140s140 62.804 140 140v160c0 33.084-26.916 60-60 60h-23.44c-8.256-23.278-30.487-40-56.56-40-33.084 0-60 26.916-60 60s26.916 60 60 60c26.073 0 48.303-16.722 56.56-40h23.44c48.293 0 88.698-34.411 97.989-80h18.011c33.084 0 60-26.916 60-60v-80c0-33.084-26.916-60-60-60zm-376 160h-16c-11.028 0-20-8.972-20-20v-80c0-11.028 8.972-20 20-20h16zm180 120c-11.028 0-20-8.972-20-20s8.972-20 20-20 20 8.972 20 20-8.972 20-20 20zm216-140c0 11.028-8.972 20-20 20h-16v-120h16c11.028 0 20 8.972 20 20z"/></g></svg>