<svg xmlns="http://www.w3.org/2000/svg" version="1.1" xmlns:xlink="http://www.w3.org/1999/xlink" width="512" height="512" x="0" y="0" viewBox="0 0 24 24" style="enable-background:new 0 0 512 512" xml:space="preserve" class=""><g><linearGradient id="b" x1="12" x2="12" y1="0" y2="22" gradientUnits="userSpaceOnUse"><stop stop-opacity="1" stop-color="#010101" offset="0.017905765810185312"></stop><stop stop-opacity="1" stop-color="#010000" offset="1"></stop></linearGradient><clipPath id="a"><path d="M0 0h24v24H0z" fill="#0c0101" opacity="1" data-original="#000000" class=""></path></clipPath><g clip-path="url(#a)"><path fill="url(#b)" d="M22 6.98V16c0 1.1-.9 2-2 2H6l-4 4V4c0-1.1.9-2 2-2h10.1c-.06.32-.1.66-.1 1s.04.68.1 1H4v12h16V7.9c.74-.15 1.42-.48 2-.92zM16 3c0 1.66 1.34 3 3 3s3-1.34 3-3-1.34-3-3-3-3 1.34-3 3z" opacity="1" data-original="url(#b)" class=""></path></g></g></svg>