<svg width="512" height="512" viewBox="0 0 512 512" fill="none" xmlns="http://www.w3.org/2000/svg">
<g clip-path="url(#clip0_1313_74)">
<path d="M231.5 230L231.7 229.4L239.5 213.9L239.8 213.4C259.6 181 289.7 162.4 322.6 162.4C331.9 162.3 341.1 164 349.8 167.3C354.5 169.1 358.8 171.1 362.9 173.1C387.8 185.7 399.5 202.2 406.4 220.3C408.4 212 409.8 203.5 410.5 194.9V171.4C404.8 100.8 358.3 63.9996 318.1 60.0996C311.5 59.3996 305.3 59.0996 299.5 59.0996C253 59.0996 230.7 79.1996 205.2 109.6C179.7 79.1996 157.4 59.0996 110.9 59.0996C105.1 59.0996 98.9 59.3996 92.3 60.0996C52.2 63.9996 5.7 100.9 0 171.5V195C5 258.9 50.9 336.9 181.9 433.6C195.8 443.8 214.8 443.8 228.7 433.6C237.8 426.9 246.4 420.3 254.7 413.8C220.2 336.2 212.7 275.9 231.5 230Z" fill="url(#paint0_linear_1313_74)"/>
<path d="M482.198 251.8C478.398 249.4 474.698 247.3 471.098 245.5C442.698 231.1 422.898 236.6 397.898 247.3C391.698 220.8 384.298 201.7 355.898 187.3C352.298 185.5 348.498 183.8 344.198 182.1C318.398 172.1 278.598 180.2 253.398 221.7L246.098 236.1C229.398 276.7 233.398 338.5 283.598 438.1C288.898 448.7 300.498 454.5 312.198 452.5C422.098 433.8 474.298 400.3 496.998 362.8L504.298 348.4C522.598 303.5 505.498 266.6 482.198 251.8Z" fill="url(#paint1_linear_1313_74)"/>
</g>
<defs>
<linearGradient id="paint0_linear_1313_74" x1="17.777" y1="7.37262" x2="495.847" y2="485.453" gradientUnits="userSpaceOnUse">
<stop stop-color="#FF567F"/>
<stop offset="1" stop-color="#F4166B"/>
</linearGradient>
<linearGradient id="paint1_linear_1313_74" x1="31.5609" y1="-6.41339" x2="509.631" y2="471.657" gradientUnits="userSpaceOnUse">
<stop stop-color="#FF567F"/>
<stop offset="1" stop-color="#F4166B"/>
</linearGradient>
<clipPath id="clip0_1313_74">
<rect width="512" height="512" fill="white"/>
</clipPath>
</defs>
</svg>
