<svg width="512" height="512" viewBox="0 0 512 512" fill="none" xmlns="http://www.w3.org/2000/svg">
<g clip-path="url(#clip0_408_46)">
<path d="M436.937 436.867C536.52 337.283 536.52 175.826 436.937 76.2425C337.353 -23.3412 175.896 -23.3412 76.3122 76.2425C-23.2715 175.826 -23.2715 337.283 76.3122 436.867C175.896 536.451 337.353 536.451 436.937 436.867Z" fill="#17738A"/>
<path fill-rule="evenodd" clip-rule="evenodd" d="M285.815 330.288L305.621 348.477C308.397 351.033 312.692 350.896 315.305 348.205L350.653 314.365C353.41 311.709 353.497 307.316 350.838 304.556C348.182 301.796 343.794 301.709 341.029 304.365L310.23 333.857L295.215 320.069C292.393 317.475 287.999 317.658 285.409 320.478C282.813 323.298 282.993 327.692 285.815 330.288ZM234.048 108.418H230.119C218.567 108.922 208.116 113.847 200.431 121.532C192.315 129.65 187.273 140.856 187.273 153.185V175.258H199.66V153.185C199.66 144.273 203.311 136.168 209.188 130.289C215.073 124.409 223.175 120.758 232.084 120.758C240.999 120.758 249.101 124.41 254.978 130.289C260.863 136.168 264.514 144.273 264.514 153.185V175.258H276.895V153.185C276.895 140.856 271.858 129.651 263.737 121.532C256.049 113.847 245.6 108.922 234.048 108.418ZM318.177 260.159C354.744 260.159 384.387 289.802 384.387 326.366C384.387 362.933 354.744 392.576 318.177 392.576C281.613 392.576 251.97 362.933 251.97 326.366C251.97 289.802 281.613 260.159 318.177 260.159ZM151.145 176.278H187.273V195.899C187.273 199.319 190.049 202.092 193.469 202.092C196.889 202.092 199.66 199.319 199.66 195.899V176.278H264.514V195.899C264.514 199.319 267.285 202.092 270.705 202.092C274.125 202.092 276.895 199.319 276.895 195.899V176.278H313.028C317.045 176.278 320.367 179.313 320.738 183.311L326.563 246.685C323.803 246.396 321.011 246.248 318.177 246.248C273.928 246.248 238.059 282.117 238.059 326.366C238.059 337.25 240.233 347.623 244.162 357.086H144.08C139.657 357.086 135.855 355.406 132.88 352.142C129.902 348.88 128.579 344.94 128.986 340.539L143.437 183.311C143.801 179.313 147.129 176.278 151.145 176.278Z" fill="white"/>
</g>
<defs>
<clipPath id="clip0_408_46">
<rect width="512" height="512" fill="white"/>
</clipPath>
</defs>
</svg>
