<svg width="512" height="512" viewBox="0 0 512 512" fill="none" xmlns="http://www.w3.org/2000/svg">
<g clip-path="url(#clip0_408_41)">
<path d="M256.001 0C114.615 0 0 114.615 0 256.001C0 397.386 114.615 512.001 256.001 512.001C397.386 512.001 512 397.386 512 256.001C512 114.615 397.386 0 256.001 0ZM380.591 380.591C376.048 385.134 368.682 385.134 364.137 380.591L297.733 314.182C279.36 329.139 256.419 337.353 232.728 337.454C174.889 337.454 128.001 290.566 128.001 232.727C128.001 174.888 174.889 128 232.728 128C290.567 128 337.456 174.888 337.456 232.727C337.353 256.418 329.141 279.36 314.183 297.732L380.587 364.136C385.13 368.68 385.133 376.045 380.591 380.591Z" fill="#17738A"/>
<path d="M232.728 314.182C277.715 314.182 314.183 277.714 314.183 232.727C314.183 187.741 277.715 151.272 232.728 151.272C187.742 151.272 151.273 187.741 151.273 232.727C151.273 277.714 187.742 314.182 232.728 314.182Z" fill="#17738A"/>
</g>
<defs>
<clipPath id="clip0_408_41">
<rect width="512" height="512" fill="white"/>
</clipPath>
</defs>
</svg>
